<svg xmlns="http://www.w3.org/2000/svg">
    <symbol id="delete" viewBox="0 0 20 19" fill="none">        
        <path d="M5.453 16.6522L4.55826 8.15225C4.52719 7.85703 4.75867 7.5999 5.05552 7.5999H14.9447C15.2416 7.5999 15.4731 7.85703 15.442 8.15225L14.5472 16.6522C14.5205 16.9067 14.3059 17.0999 14.05 17.0999H5.95025C5.69437 17.0999 5.47979 16.9067 5.453 16.6522Z" fill="#CCCCCC"/>
        <path d="M17.0001 5.6999H3.00012C2.72398 5.6999 2.50012 5.47605 2.50012 5.1999V4.2999C2.50012 4.02376 2.72398 3.7999 3.00012 3.7999H5.35511C5.44983 3.7999 5.54261 3.77299 5.62263 3.72231L8.37761 1.97749C8.45764 1.92681 8.55041 1.8999 8.64514 1.8999H11.3551C11.4498 1.8999 11.5426 1.92681 11.6226 1.97749L14.3776 3.72231C14.4576 3.77299 14.5504 3.7999 14.6451 3.7999H17.0001C17.2763 3.7999 17.5001 4.02376 17.5001 4.2999V5.1999C17.5001 5.47604 17.2763 5.6999 17.0001 5.6999Z" fill="#CCCCCC"/>        
    </symbol>
    <symbol id="add" viewBox="0 0 20 20" fill="none">        
        <path d="M11 5C11 4.44772 10.5523 4 9.99998 4C9.44769 4 8.99998 4.44772 8.99998 5V8.99998H5C4.44772 8.99998 4 9.44769 4 9.99998C4 10.5523 4.44772 11 5 11H8.99998V15C8.99998 15.5522 9.44769 16 9.99998 16C10.5523 16 11 15.5522 11 15V11H15C15.5522 11 16 10.5523 16 9.99998C16 9.44769 15.5522 8.99998 15 8.99998H11V5Z" fill="#5558FA"/>        
    </symbol>
    <symbol id="success" viewBox="0 0 48 48" fill="none">       
        <path fill-rule="evenodd" clip-rule="evenodd" d="M4.80005 24C4.80005 13.4016 13.4016 4.80005 24 4.80005C34.5985 4.80005 43.2001 13.4016 43.2001 24C43.2001 34.5985 34.5985 43.2001 24 43.2001C13.4016 43.2001 4.80005 34.5985 4.80005 24ZM31.4093 16.9903C30.9678 16.6817 30.3556 16.7557 30.0058 17.16L21.8957 26.5311L17.715 22.7738C17.3165 22.4157 16.7008 22.4157 16.3023 22.7738L14.7329 24.1842C14.2891 24.5831 14.2891 25.264 14.7329 25.6629L20.5953 30.9314C20.7874 31.1041 21.0396 31.2001 21.3016 31.2001H22.9073C23.2144 31.2001 23.5058 31.0683 23.7033 30.8401L33.3568 19.6856C33.7452 19.2368 33.6585 18.5625 33.1684 18.2199L31.4093 16.9903Z" fill="#05AE71"/>        
    </symbol>
    <symbol id="close" viewBox="0 0 20 20" fill="none">        
        <path d="M5.40385 4.6965C5.59911 4.50123 5.91569 4.50123 6.11095 4.6965L10.0002 8.5857L13.8892 4.69665C14.0845 4.50138 14.4011 4.50138 14.5963 4.69665L15.3034 5.40375C15.4987 5.59902 15.4987 5.9156 15.3034 6.11086L11.4144 9.99991L15.3033 13.8889C15.4986 14.0841 15.4986 14.4007 15.3033 14.596L14.5962 15.3031C14.401 15.4984 14.0844 15.4984 13.8891 15.3031L10.0002 11.4141L6.11103 15.3032C5.91577 15.4985 5.59919 15.4985 5.40393 15.3032L4.69682 14.5961C4.50156 14.4009 4.50156 14.0843 4.69682 13.889L8.58594 9.99991L4.69674 6.11071C4.50148 5.91545 4.50148 5.59886 4.69674 5.4036L5.40385 4.6965Z" fill="#B3B3B3"/>
    </symbol>
    <symbol id="error" viewBox="0 0 48 48" fill="none">        
        <path fill-rule="evenodd" clip-rule="evenodd" d="M23.9998 4.7998C13.4014 4.7998 4.7998 13.4014 4.7998 23.9998C4.7998 34.5982 13.4014 43.1998 23.9998 43.1998C34.5982 43.1998 43.1998 34.5982 43.1998 23.9998C43.1998 13.4014 34.5982 4.7998 23.9998 4.7998ZM16.4095 15.4835C16.7319 15.161 17.2548 15.161 17.5772 15.4835L24 21.9062L30.4225 15.4838C30.745 15.1613 31.2678 15.1613 31.5903 15.4838L32.758 16.6515C33.0805 16.974 33.0805 17.4968 32.758 17.8192L26.3355 24.2417L32.7579 30.6641C33.0804 30.9865 33.0804 31.5094 32.7579 31.8318L31.5902 32.9996C31.2677 33.322 30.7449 33.322 30.4224 32.9996L24 26.5772L17.5773 32.9998C17.2549 33.3223 16.7321 33.3223 16.4096 32.9998L15.2419 31.8321C14.9194 31.5096 14.9194 30.9868 15.2419 30.6643L21.6645 24.2417L15.2417 17.819C14.9193 17.4965 14.9193 16.9737 15.2417 16.6512L16.4095 15.4835Z" fill="#E84E58"/>        
    </symbol>
</svg>